<?xml version="1.0" standalone="yes"?><svg xmlns="http://www.w3.org/2000/svg" version="1.1" width="232" height="232" viewBox="0 0 232 232" shape-rendering="crispEdges"><rect x="0" y="0" width="232" height="232" fill="#ffffff"/><path fill="#000000" d="M32 32h8v8H32V32M40 32h8v8H40V32M48 32h8v8H48V32M56 32h8v8H56V32M64 32h8v8H64V32M72 32h8v8H72V32M80 32h8v8H80V32M112 32h8v8H112V32M120 32h8v8H120V32M128 32h8v8H128V32M144 32h8v8H144V32M152 32h8v8H152V32M160 32h8v8H160V32M168 32h8v8H168V32M176 32h8v8H176V32M184 32h8v8H184V32M192 32h8v8H192V32M32 40h8v8H32V40M80 40h8v8H80V40M104 40h8v8H104V40M144 40h8v8H144V40M192 40h8v8H192V40M32 48h8v8H32V48M48 48h8v8H48V48M56 48h8v8H56V48M64 48h8v8H64V48M80 48h8v8H80V48M104 48h8v8H104V48M112 48h8v8H112V48M128 48h8v8H128V48M144 48h8v8H144V48M160 48h8v8H160V48M168 48h8v8H168V48M176 48h8v8H176V48M192 48h8v8H192V48M32 56h8v8H32V56M48 56h8v8H48V56M56 56h8v8H56V56M64 56h8v8H64V56M80 56h8v8H80V56M104 56h8v8H104V56M128 56h8v8H128V56M144 56h8v8H144V56M160 56h8v8H160V56M168 56h8v8H168V56M176 56h8v8H176V56M192 56h8v8H192V56M32 64h8v8H32V64M48 64h8v8H48V64M56 64h8v8H56V64M64 64h8v8H64V64M80 64h8v8H80V64M104 64h8v8H104V64M128 64h8v8H128V64M144 64h8v8H144V64M160 64h8v8H160V64M168 64h8v8H168V64M176 64h8v8H176V64M192 64h8v8H192V64M32 72h8v8H32V72M80 72h8v8H80V72M96 72h8v8H96V72M120 72h8v8H120V72M128 72h8v8H128V72M144 72h8v8H144V72M192 72h8v8H192V72M32 80h8v8H32V80M40 80h8v8H40V80M48 80h8v8H48V80M56 80h8v8H56V80M64 80h8v8H64V80M72 80h8v8H72V80M80 80h8v8H80V80M96 80h8v8H96V80M112 80h8v8H112V80M128 80h8v8H128V80M144 80h8v8H144V80M152 80h8v8H152V80M160 80h8v8H160V80M168 80h8v8H168V80M176 80h8v8H176V80M184 80h8v8H184V80M192 80h8v8H192V80M104 88h8v8H104V88M120 88h8v8H120V88M128 88h8v8H128V88M32 96h8v8H32V96M56 96h8v8H56V96M72 96h8v8H72V96M80 96h8v8H80V96M96 96h8v8H96V96M112 96h8v8H112V96M136 96h8v8H136V96M152 96h8v8H152V96M40 104h8v8H40V104M48 104h8v8H48V104M56 104h8v8H56V104M104 104h8v8H104V104M152 104h8v8H152V104M168 104h8v8H168V104M176 104h8v8H176V104M184 104h8v8H184V104M32 112h8v8H32V112M40 112h8v8H40V112M64 112h8v8H64V112M72 112h8v8H72V112M80 112h8v8H80V112M88 112h8v8H88V112M104 112h8v8H104V112M112 112h8v8H112V112M128 112h8v8H128V112M144 112h8v8H144V112M152 112h8v8H152V112M168 112h8v8H168V112M176 112h8v8H176V112M192 112h8v8H192V112M32 120h8v8H32V120M40 120h8v8H40V120M56 120h8v8H56V120M64 120h8v8H64V120M88 120h8v8H88V120M96 120h8v8H96V120M104 120h8v8H104V120M120 120h8v8H120V120M144 120h8v8H144V120M152 120h8v8H152V120M168 120h8v8H168V120M184 120h8v8H184V120M80 128h8v8H80V128M88 128h8v8H88V128M96 128h8v8H96V128M112 128h8v8H112V128M128 128h8v8H128V128M144 128h8v8H144V128M176 128h8v8H176V128M192 128h8v8H192V128M96 136h8v8H96V136M120 136h8v8H120V136M136 136h8v8H136V136M152 136h8v8H152V136M160 136h8v8H160V136M168 136h8v8H168V136M176 136h8v8H176V136M32 144h8v8H32V144M40 144h8v8H40V144M48 144h8v8H48V144M56 144h8v8H56V144M64 144h8v8H64V144M72 144h8v8H72V144M80 144h8v8H80V144M104 144h8v8H104V144M112 144h8v8H112V144M152 144h8v8H152V144M160 144h8v8H160V144M184 144h8v8H184V144M32 152h8v8H32V152M80 152h8v8H80V152M96 152h8v8H96V152M112 152h8v8H112V152M120 152h8v8H120V152M128 152h8v8H128V152M136 152h8v8H136V152M160 152h8v8H160V152M32 160h8v8H32V160M48 160h8v8H48V160M56 160h8v8H56V160M64 160h8v8H64V160M80 160h8v8H80V160M120 160h8v8H120V160M136 160h8v8H136V160M144 160h8v8H144V160M176 160h8v8H176V160M184 160h8v8H184V160M32 168h8v8H32V168M48 168h8v8H48V168M56 168h8v8H56V168M64 168h8v8H64V168M80 168h8v8H80V168M96 168h8v8H96V168M112 168h8v8H112V168M120 168h8v8H120V168M168 168h8v8H168V168M184 168h8v8H184V168M192 168h8v8H192V168M32 176h8v8H32V176M48 176h8v8H48V176M56 176h8v8H56V176M64 176h8v8H64V176M80 176h8v8H80V176M104 176h8v8H104V176M112 176h8v8H112V176M128 176h8v8H128V176M152 176h8v8H152V176M160 176h8v8H160V176M168 176h8v8H168V176M176 176h8v8H176V176M192 176h8v8H192V176M32 184h8v8H32V184M80 184h8v8H80V184M104 184h8v8H104V184M112 184h8v8H112V184M136 184h8v8H136V184M144 184h8v8H144V184M32 192h8v8H32V192M40 192h8v8H40V192M48 192h8v8H48V192M56 192h8v8H56V192M64 192h8v8H64V192M72 192h8v8H72V192M80 192h8v8H80V192M96 192h8v8H96V192M104 192h8v8H104V192M112 192h8v8H112V192M120 192h8v8H120V192M128 192h8v8H128V192M152 192h8v8H152V192M176 192h8v8H176V192M184 192h8v8H184V192"/></svg>
