<?xml version="1.0" standalone="yes"?><svg xmlns="http://www.w3.org/2000/svg" version="1.1" width="264" height="264" viewBox="0 0 264 264" shape-rendering="crispEdges"><rect x="0" y="0" width="264" height="264" fill="#ffffff"/><path fill="#000000" d="M32 32h8v8H32V32M40 32h8v8H40V32M48 32h8v8H48V32M56 32h8v8H56V32M64 32h8v8H64V32M72 32h8v8H72V32M80 32h8v8H80V32M120 32h8v8H120V32M128 32h8v8H128V32M136 32h8v8H136V32M160 32h8v8H160V32M176 32h8v8H176V32M184 32h8v8H184V32M192 32h8v8H192V32M200 32h8v8H200V32M208 32h8v8H208V32M216 32h8v8H216V32M224 32h8v8H224V32M32 40h8v8H32V40M80 40h8v8H80V40M96 40h8v8H96V40M112 40h8v8H112V40M120 40h8v8H120V40M144 40h8v8H144V40M152 40h8v8H152V40M160 40h8v8H160V40M176 40h8v8H176V40M224 40h8v8H224V40M32 48h8v8H32V48M48 48h8v8H48V48M56 48h8v8H56V48M64 48h8v8H64V48M80 48h8v8H80V48M104 48h8v8H104V48M120 48h8v8H120V48M136 48h8v8H136V48M144 48h8v8H144V48M160 48h8v8H160V48M176 48h8v8H176V48M192 48h8v8H192V48M200 48h8v8H200V48M208 48h8v8H208V48M224 48h8v8H224V48M32 56h8v8H32V56M48 56h8v8H48V56M56 56h8v8H56V56M64 56h8v8H64V56M80 56h8v8H80V56M120 56h8v8H120V56M128 56h8v8H128V56M136 56h8v8H136V56M144 56h8v8H144V56M152 56h8v8H152V56M176 56h8v8H176V56M192 56h8v8H192V56M200 56h8v8H200V56M208 56h8v8H208V56M224 56h8v8H224V56M32 64h8v8H32V64M48 64h8v8H48V64M56 64h8v8H56V64M64 64h8v8H64V64M80 64h8v8H80V64M96 64h8v8H96V64M112 64h8v8H112V64M120 64h8v8H120V64M144 64h8v8H144V64M176 64h8v8H176V64M192 64h8v8H192V64M200 64h8v8H200V64M208 64h8v8H208V64M224 64h8v8H224V64M32 72h8v8H32V72M80 72h8v8H80V72M104 72h8v8H104V72M120 72h8v8H120V72M128 72h8v8H128V72M136 72h8v8H136V72M176 72h8v8H176V72M224 72h8v8H224V72M32 80h8v8H32V80M40 80h8v8H40V80M48 80h8v8H48V80M56 80h8v8H56V80M64 80h8v8H64V80M72 80h8v8H72V80M80 80h8v8H80V80M96 80h8v8H96V80M112 80h8v8H112V80M128 80h8v8H128V80M144 80h8v8H144V80M160 80h8v8H160V80M176 80h8v8H176V80M184 80h8v8H184V80M192 80h8v8H192V80M200 80h8v8H200V80M208 80h8v8H208V80M216 80h8v8H216V80M224 80h8v8H224V80M104 88h8v8H104V88M136 88h8v8H136V88M144 88h8v8H144V88M160 88h8v8H160V88M32 96h8v8H32V96M48 96h8v8H48V96M64 96h8v8H64V96M80 96h8v8H80V96M104 96h8v8H104V96M144 96h8v8H144V96M152 96h8v8H152V96M160 96h8v8H160V96M192 96h8v8H192V96M216 96h8v8H216V96M72 104h8v8H72V104M88 104h8v8H88V104M128 104h8v8H128V104M144 104h8v8H144V104M152 104h8v8H152V104M168 104h8v8H168V104M176 104h8v8H176V104M184 104h8v8H184V104M40 112h8v8H40V112M48 112h8v8H48V112M80 112h8v8H80V112M88 112h8v8H88V112M96 112h8v8H96V112M112 112h8v8H112V112M136 112h8v8H136V112M160 112h8v8H160V112M176 112h8v8H176V112M192 112h8v8H192V112M208 112h8v8H208V112M224 112h8v8H224V112M48 120h8v8H48V120M88 120h8v8H88V120M96 120h8v8H96V120M152 120h8v8H152V120M176 120h8v8H176V120M208 120h8v8H208V120M216 120h8v8H216V120M224 120h8v8H224V120M32 128h8v8H32V128M40 128h8v8H40V128M56 128h8v8H56V128M64 128h8v8H64V128M80 128h8v8H80V128M88 128h8v8H88V128M104 128h8v8H104V128M112 128h8v8H112V128M120 128h8v8H120V128M128 128h8v8H128V128M160 128h8v8H160V128M192 128h8v8H192V128M200 128h8v8H200V128M208 128h8v8H208V128M48 136h8v8H48V136M72 136h8v8H72V136M96 136h8v8H96V136M104 136h8v8H104V136M112 136h8v8H112V136M120 136h8v8H120V136M128 136h8v8H128V136M136 136h8v8H136V136M160 136h8v8H160V136M168 136h8v8H168V136M176 136h8v8H176V136M184 136h8v8H184V136M200 136h8v8H200V136M32 144h8v8H32V144M56 144h8v8H56V144M64 144h8v8H64V144M80 144h8v8H80V144M104 144h8v8H104V144M112 144h8v8H112V144M120 144h8v8H120V144M128 144h8v8H128V144M144 144h8v8H144V144M160 144h8v8H160V144M200 144h8v8H200V144M208 144h8v8H208V144M216 144h8v8H216V144M40 152h8v8H40V152M72 152h8v8H72V152M104 152h8v8H104V152M112 152h8v8H112V152M128 152h8v8H128V152M136 152h8v8H136V152M144 152h8v8H144V152M160 152h8v8H160V152M168 152h8v8H168V152M184 152h8v8H184V152M208 152h8v8H208V152M216 152h8v8H216V152M32 160h8v8H32V160M48 160h8v8H48V160M56 160h8v8H56V160M80 160h8v8H80V160M112 160h8v8H112V160M120 160h8v8H120V160M144 160h8v8H144V160M160 160h8v8H160V160M168 160h8v8H168V160M176 160h8v8H176V160M184 160h8v8H184V160M192 160h8v8H192V160M208 160h8v8H208V160M96 168h8v8H96V168M104 168h8v8H104V168M120 168h8v8H120V168M144 168h8v8H144V168M152 168h8v8H152V168M160 168h8v8H160V168M192 168h8v8H192V168M208 168h8v8H208V168M216 168h8v8H216V168M224 168h8v8H224V168M32 176h8v8H32V176M40 176h8v8H40V176M48 176h8v8H48V176M56 176h8v8H56V176M64 176h8v8H64V176M72 176h8v8H72V176M80 176h8v8H80V176M112 176h8v8H112V176M136 176h8v8H136V176M152 176h8v8H152V176M160 176h8v8H160V176M176 176h8v8H176V176M192 176h8v8H192V176M32 184h8v8H32V184M80 184h8v8H80V184M104 184h8v8H104V184M112 184h8v8H112V184M120 184h8v8H120V184M152 184h8v8H152V184M160 184h8v8H160V184M192 184h8v8H192V184M224 184h8v8H224V184M32 192h8v8H32V192M48 192h8v8H48V192M56 192h8v8H56V192M64 192h8v8H64V192M80 192h8v8H80V192M96 192h8v8H96V192M128 192h8v8H128V192M152 192h8v8H152V192M160 192h8v8H160V192M168 192h8v8H168V192M176 192h8v8H176V192M184 192h8v8H184V192M192 192h8v8H192V192M208 192h8v8H208V192M224 192h8v8H224V192M32 200h8v8H32V200M48 200h8v8H48V200M56 200h8v8H56V200M64 200h8v8H64V200M80 200h8v8H80V200M104 200h8v8H104V200M112 200h8v8H112V200M120 200h8v8H120V200M128 200h8v8H128V200M136 200h8v8H136V200M152 200h8v8H152V200M176 200h8v8H176V200M192 200h8v8H192V200M200 200h8v8H200V200M216 200h8v8H216V200M32 208h8v8H32V208M48 208h8v8H48V208M56 208h8v8H56V208M64 208h8v8H64V208M80 208h8v8H80V208M96 208h8v8H96V208M120 208h8v8H120V208M128 208h8v8H128V208M144 208h8v8H144V208M160 208h8v8H160V208M184 208h8v8H184V208M208 208h8v8H208V208M224 208h8v8H224V208M32 216h8v8H32V216M80 216h8v8H80V216M104 216h8v8H104V216M112 216h8v8H112V216M128 216h8v8H128V216M136 216h8v8H136V216M144 216h8v8H144V216M168 216h8v8H168V216M200 216h8v8H200V216M216 216h8v8H216V216M224 216h8v8H224V216M32 224h8v8H32V224M40 224h8v8H40V224M48 224h8v8H48V224M56 224h8v8H56V224M64 224h8v8H64V224M72 224h8v8H72V224M80 224h8v8H80V224M96 224h8v8H96V224M120 224h8v8H120V224M144 224h8v8H144V224M160 224h8v8H160V224M168 224h8v8H168V224M176 224h8v8H176V224M184 224h8v8H184V224M192 224h8v8H192V224M200 224h8v8H200V224M208 224h8v8H208V224M224 224h8v8H224V224"/></svg>
