<?xml version="1.0" standalone="yes"?><svg xmlns="http://www.w3.org/2000/svg" version="1.1" width="264" height="264" viewBox="0 0 264 264" shape-rendering="crispEdges"><rect x="0" y="0" width="264" height="264" fill="#ffffff"/><path fill="#000000" d="M32 32h8v8H32V32M40 32h8v8H40V32M48 32h8v8H48V32M56 32h8v8H56V32M64 32h8v8H64V32M72 32h8v8H72V32M80 32h8v8H80V32M96 32h8v8H96V32M104 32h8v8H104V32M136 32h8v8H136V32M144 32h8v8H144V32M152 32h8v8H152V32M176 32h8v8H176V32M184 32h8v8H184V32M192 32h8v8H192V32M200 32h8v8H200V32M208 32h8v8H208V32M216 32h8v8H216V32M224 32h8v8H224V32M32 40h8v8H32V40M80 40h8v8H80V40M120 40h8v8H120V40M128 40h8v8H128V40M152 40h8v8H152V40M176 40h8v8H176V40M224 40h8v8H224V40M32 48h8v8H32V48M48 48h8v8H48V48M56 48h8v8H56V48M64 48h8v8H64V48M80 48h8v8H80V48M96 48h8v8H96V48M104 48h8v8H104V48M112 48h8v8H112V48M120 48h8v8H120V48M128 48h8v8H128V48M136 48h8v8H136V48M176 48h8v8H176V48M192 48h8v8H192V48M200 48h8v8H200V48M208 48h8v8H208V48M224 48h8v8H224V48M32 56h8v8H32V56M48 56h8v8H48V56M56 56h8v8H56V56M64 56h8v8H64V56M80 56h8v8H80V56M112 56h8v8H112V56M152 56h8v8H152V56M176 56h8v8H176V56M192 56h8v8H192V56M200 56h8v8H200V56M208 56h8v8H208V56M224 56h8v8H224V56M32 64h8v8H32V64M48 64h8v8H48V64M56 64h8v8H56V64M64 64h8v8H64V64M80 64h8v8H80V64M112 64h8v8H112V64M120 64h8v8H120V64M152 64h8v8H152V64M160 64h8v8H160V64M176 64h8v8H176V64M192 64h8v8H192V64M200 64h8v8H200V64M208 64h8v8H208V64M224 64h8v8H224V64M32 72h8v8H32V72M80 72h8v8H80V72M96 72h8v8H96V72M120 72h8v8H120V72M128 72h8v8H128V72M136 72h8v8H136V72M144 72h8v8H144V72M176 72h8v8H176V72M224 72h8v8H224V72M32 80h8v8H32V80M40 80h8v8H40V80M48 80h8v8H48V80M56 80h8v8H56V80M64 80h8v8H64V80M72 80h8v8H72V80M80 80h8v8H80V80M96 80h8v8H96V80M112 80h8v8H112V80M128 80h8v8H128V80M144 80h8v8H144V80M160 80h8v8H160V80M176 80h8v8H176V80M184 80h8v8H184V80M192 80h8v8H192V80M200 80h8v8H200V80M208 80h8v8H208V80M216 80h8v8H216V80M224 80h8v8H224V80M120 88h8v8H120V88M128 88h8v8H128V88M136 88h8v8H136V88M32 96h8v8H32V96M48 96h8v8H48V96M80 96h8v8H80V96M88 96h8v8H88V96M104 96h8v8H104V96M112 96h8v8H112V96M136 96h8v8H136V96M152 96h8v8H152V96M184 96h8v8H184V96M208 96h8v8H208V96M224 96h8v8H224V96M48 104h8v8H48V104M56 104h8v8H56V104M96 104h8v8H96V104M104 104h8v8H104V104M112 104h8v8H112V104M168 104h8v8H168V104M176 104h8v8H176V104M208 104h8v8H208V104M216 104h8v8H216V104M56 112h8v8H56V112M72 112h8v8H72V112M80 112h8v8H80V112M104 112h8v8H104V112M112 112h8v8H112V112M120 112h8v8H120V112M136 112h8v8H136V112M144 112h8v8H144V112M152 112h8v8H152V112M192 112h8v8H192V112M200 112h8v8H200V112M208 112h8v8H208V112M216 112h8v8H216V112M40 120h8v8H40V120M56 120h8v8H56V120M64 120h8v8H64V120M88 120h8v8H88V120M104 120h8v8H104V120M120 120h8v8H120V120M144 120h8v8H144V120M160 120h8v8H160V120M168 120h8v8H168V120M184 120h8v8H184V120M192 120h8v8H192V120M208 120h8v8H208V120M216 120h8v8H216V120M48 128h8v8H48V128M56 128h8v8H56V128M72 128h8v8H72V128M80 128h8v8H80V128M88 128h8v8H88V128M96 128h8v8H96V128M112 128h8v8H112V128M120 128h8v8H120V128M136 128h8v8H136V128M144 128h8v8H144V128M152 128h8v8H152V128M168 128h8v8H168V128M176 128h8v8H176V128M200 128h8v8H200V128M216 128h8v8H216V128M40 136h8v8H40V136M64 136h8v8H64V136M72 136h8v8H72V136M96 136h8v8H96V136M136 136h8v8H136V136M144 136h8v8H144V136M168 136h8v8H168V136M176 136h8v8H176V136M224 136h8v8H224V136M32 144h8v8H32V144M40 144h8v8H40V144M48 144h8v8H48V144M56 144h8v8H56V144M80 144h8v8H80V144M88 144h8v8H88V144M96 144h8v8H96V144M112 144h8v8H112V144M120 144h8v8H120V144M152 144h8v8H152V144M168 144h8v8H168V144M176 144h8v8H176V144M192 144h8v8H192V144M216 144h8v8H216V144M48 152h8v8H48V152M72 152h8v8H72V152M96 152h8v8H96V152M104 152h8v8H104V152M112 152h8v8H112V152M136 152h8v8H136V152M168 152h8v8H168V152M200 152h8v8H200V152M216 152h8v8H216V152M32 160h8v8H32V160M40 160h8v8H40V160M56 160h8v8H56V160M64 160h8v8H64V160M72 160h8v8H72V160M80 160h8v8H80V160M96 160h8v8H96V160M104 160h8v8H104V160M112 160h8v8H112V160M120 160h8v8H120V160M128 160h8v8H128V160M136 160h8v8H136V160M152 160h8v8H152V160M160 160h8v8H160V160M168 160h8v8H168V160M176 160h8v8H176V160M184 160h8v8H184V160M192 160h8v8H192V160M208 160h8v8H208V160M96 168h8v8H96V168M104 168h8v8H104V168M128 168h8v8H128V168M160 168h8v8H160V168M192 168h8v8H192V168M224 168h8v8H224V168M32 176h8v8H32V176M40 176h8v8H40V176M48 176h8v8H48V176M56 176h8v8H56V176M64 176h8v8H64V176M72 176h8v8H72V176M80 176h8v8H80V176M96 176h8v8H96V176M112 176h8v8H112V176M128 176h8v8H128V176M136 176h8v8H136V176M144 176h8v8H144V176M160 176h8v8H160V176M176 176h8v8H176V176M192 176h8v8H192V176M200 176h8v8H200V176M208 176h8v8H208V176M216 176h8v8H216V176M224 176h8v8H224V176M32 184h8v8H32V184M80 184h8v8H80V184M112 184h8v8H112V184M120 184h8v8H120V184M128 184h8v8H128V184M144 184h8v8H144V184M160 184h8v8H160V184M192 184h8v8H192V184M216 184h8v8H216V184M224 184h8v8H224V184M32 192h8v8H32V192M48 192h8v8H48V192M56 192h8v8H56V192M64 192h8v8H64V192M80 192h8v8H80V192M104 192h8v8H104V192M136 192h8v8H136V192M144 192h8v8H144V192M152 192h8v8H152V192M160 192h8v8H160V192M168 192h8v8H168V192M176 192h8v8H176V192M184 192h8v8H184V192M192 192h8v8H192V192M200 192h8v8H200V192M216 192h8v8H216V192M224 192h8v8H224V192M32 200h8v8H32V200M48 200h8v8H48V200M56 200h8v8H56V200M64 200h8v8H64V200M80 200h8v8H80V200M104 200h8v8H104V200M136 200h8v8H136V200M144 200h8v8H144V200M152 200h8v8H152V200M168 200h8v8H168V200M184 200h8v8H184V200M208 200h8v8H208V200M32 208h8v8H32V208M48 208h8v8H48V208M56 208h8v8H56V208M64 208h8v8H64V208M80 208h8v8H80V208M96 208h8v8H96V208M120 208h8v8H120V208M192 208h8v8H192V208M208 208h8v8H208V208M216 208h8v8H216V208M224 208h8v8H224V208M32 216h8v8H32V216M80 216h8v8H80V216M104 216h8v8H104V216M112 216h8v8H112V216M136 216h8v8H136V216M168 216h8v8H168V216M176 216h8v8H176V216M184 216h8v8H184V216M200 216h8v8H200V216M224 216h8v8H224V216M32 224h8v8H32V224M40 224h8v8H40V224M48 224h8v8H48V224M56 224h8v8H56V224M64 224h8v8H64V224M72 224h8v8H72V224M80 224h8v8H80V224M96 224h8v8H96V224M112 224h8v8H112V224M120 224h8v8H120V224M128 224h8v8H128V224M136 224h8v8H136V224M160 224h8v8H160V224M176 224h8v8H176V224M216 224h8v8H216V224M224 224h8v8H224V224"/></svg>
