<?xml version="1.0" standalone="yes"?><svg xmlns="http://www.w3.org/2000/svg" version="1.1" width="232" height="232" viewBox="0 0 232 232" shape-rendering="crispEdges"><rect x="0" y="0" width="232" height="232" fill="#ffffff"/><path fill="#000000" d="M32 32h8v8H32V32M40 32h8v8H40V32M48 32h8v8H48V32M56 32h8v8H56V32M64 32h8v8H64V32M72 32h8v8H72V32M80 32h8v8H80V32M104 32h8v8H104V32M144 32h8v8H144V32M152 32h8v8H152V32M160 32h8v8H160V32M168 32h8v8H168V32M176 32h8v8H176V32M184 32h8v8H184V32M192 32h8v8H192V32M32 40h8v8H32V40M80 40h8v8H80V40M96 40h8v8H96V40M104 40h8v8H104V40M112 40h8v8H112V40M128 40h8v8H128V40M144 40h8v8H144V40M192 40h8v8H192V40M32 48h8v8H32V48M48 48h8v8H48V48M56 48h8v8H56V48M64 48h8v8H64V48M80 48h8v8H80V48M128 48h8v8H128V48M144 48h8v8H144V48M160 48h8v8H160V48M168 48h8v8H168V48M176 48h8v8H176V48M192 48h8v8H192V48M32 56h8v8H32V56M48 56h8v8H48V56M56 56h8v8H56V56M64 56h8v8H64V56M80 56h8v8H80V56M112 56h8v8H112V56M144 56h8v8H144V56M160 56h8v8H160V56M168 56h8v8H168V56M176 56h8v8H176V56M192 56h8v8H192V56M32 64h8v8H32V64M48 64h8v8H48V64M56 64h8v8H56V64M64 64h8v8H64V64M80 64h8v8H80V64M96 64h8v8H96V64M104 64h8v8H104V64M112 64h8v8H112V64M120 64h8v8H120V64M128 64h8v8H128V64M144 64h8v8H144V64M160 64h8v8H160V64M168 64h8v8H168V64M176 64h8v8H176V64M192 64h8v8H192V64M32 72h8v8H32V72M80 72h8v8H80V72M120 72h8v8H120V72M144 72h8v8H144V72M192 72h8v8H192V72M32 80h8v8H32V80M40 80h8v8H40V80M48 80h8v8H48V80M56 80h8v8H56V80M64 80h8v8H64V80M72 80h8v8H72V80M80 80h8v8H80V80M96 80h8v8H96V80M112 80h8v8H112V80M128 80h8v8H128V80M144 80h8v8H144V80M152 80h8v8H152V80M160 80h8v8H160V80M168 80h8v8H168V80M176 80h8v8H176V80M184 80h8v8H184V80M192 80h8v8H192V80M104 88h8v8H104V88M112 88h8v8H112V88M32 96h8v8H32V96M48 96h8v8H48V96M64 96h8v8H64V96M80 96h8v8H80V96M104 96h8v8H104V96M128 96h8v8H128V96M160 96h8v8H160V96M184 96h8v8H184V96M40 104h8v8H40V104M48 104h8v8H48V104M56 104h8v8H56V104M88 104h8v8H88V104M96 104h8v8H96V104M112 104h8v8H112V104M120 104h8v8H120V104M136 104h8v8H136V104M152 104h8v8H152V104M168 104h8v8H168V104M176 104h8v8H176V104M64 112h8v8H64V112M80 112h8v8H80V112M88 112h8v8H88V112M96 112h8v8H96V112M104 112h8v8H104V112M120 112h8v8H120V112M136 112h8v8H136V112M144 112h8v8H144V112M152 112h8v8H152V112M168 112h8v8H168V112M176 112h8v8H176V112M184 112h8v8H184V112M40 120h8v8H40V120M48 120h8v8H48V120M56 120h8v8H56V120M64 120h8v8H64V120M120 120h8v8H120V120M128 120h8v8H128V120M136 120h8v8H136V120M152 120h8v8H152V120M160 120h8v8H160V120M168 120h8v8H168V120M176 120h8v8H176V120M192 120h8v8H192V120M32 128h8v8H32V128M48 128h8v8H48V128M56 128h8v8H56V128M80 128h8v8H80V128M88 128h8v8H88V128M120 128h8v8H120V128M136 128h8v8H136V128M144 128h8v8H144V128M152 128h8v8H152V128M168 128h8v8H168V128M176 128h8v8H176V128M184 128h8v8H184V128M192 128h8v8H192V128M96 136h8v8H96V136M104 136h8v8H104V136M144 136h8v8H144V136M184 136h8v8H184V136M32 144h8v8H32V144M40 144h8v8H40V144M48 144h8v8H48V144M56 144h8v8H56V144M64 144h8v8H64V144M72 144h8v8H72V144M80 144h8v8H80V144M104 144h8v8H104V144M128 144h8v8H128V144M160 144h8v8H160V144M184 144h8v8H184V144M32 152h8v8H32V152M80 152h8v8H80V152M104 152h8v8H104V152M112 152h8v8H112V152M144 152h8v8H144V152M168 152h8v8H168V152M176 152h8v8H176V152M184 152h8v8H184V152M192 152h8v8H192V152M32 160h8v8H32V160M48 160h8v8H48V160M56 160h8v8H56V160M64 160h8v8H64V160M80 160h8v8H80V160M96 160h8v8H96V160M128 160h8v8H128V160M144 160h8v8H144V160M160 160h8v8H160V160M176 160h8v8H176V160M192 160h8v8H192V160M32 168h8v8H32V168M48 168h8v8H48V168M56 168h8v8H56V168M64 168h8v8H64V168M80 168h8v8H80V168M104 168h8v8H104V168M120 168h8v8H120V168M136 168h8v8H136V168M152 168h8v8H152V168M168 168h8v8H168V168M176 168h8v8H176V168M184 168h8v8H184V168M32 176h8v8H32V176M48 176h8v8H48V176M56 176h8v8H56V176M64 176h8v8H64V176M80 176h8v8H80V176M96 176h8v8H96V176M104 176h8v8H104V176M112 176h8v8H112V176M120 176h8v8H120V176M136 176h8v8H136V176M144 176h8v8H144V176M152 176h8v8H152V176M176 176h8v8H176V176M192 176h8v8H192V176M32 184h8v8H32V184M80 184h8v8H80V184M104 184h8v8H104V184M120 184h8v8H120V184M128 184h8v8H128V184M136 184h8v8H136V184M152 184h8v8H152V184M160 184h8v8H160V184M168 184h8v8H168V184M184 184h8v8H184V184M192 184h8v8H192V184M32 192h8v8H32V192M40 192h8v8H40V192M48 192h8v8H48V192M56 192h8v8H56V192M64 192h8v8H64V192M72 192h8v8H72V192M80 192h8v8H80V192M96 192h8v8H96V192M104 192h8v8H104V192M112 192h8v8H112V192M120 192h8v8H120V192M136 192h8v8H136V192M144 192h8v8H144V192M152 192h8v8H152V192M176 192h8v8H176V192M192 192h8v8H192V192"/></svg>
