<?xml version="1.0" standalone="yes"?><svg xmlns="http://www.w3.org/2000/svg" version="1.1" width="264" height="264" viewBox="0 0 264 264" shape-rendering="crispEdges"><rect x="0" y="0" width="264" height="264" fill="#ffffff"/><path fill="#000000" d="M32 32h8v8H32V32M40 32h8v8H40V32M48 32h8v8H48V32M56 32h8v8H56V32M64 32h8v8H64V32M72 32h8v8H72V32M80 32h8v8H80V32M96 32h8v8H96V32M104 32h8v8H104V32M112 32h8v8H112V32M120 32h8v8H120V32M136 32h8v8H136V32M152 32h8v8H152V32M176 32h8v8H176V32M184 32h8v8H184V32M192 32h8v8H192V32M200 32h8v8H200V32M208 32h8v8H208V32M216 32h8v8H216V32M224 32h8v8H224V32M32 40h8v8H32V40M80 40h8v8H80V40M96 40h8v8H96V40M104 40h8v8H104V40M120 40h8v8H120V40M136 40h8v8H136V40M176 40h8v8H176V40M224 40h8v8H224V40M32 48h8v8H32V48M48 48h8v8H48V48M56 48h8v8H56V48M64 48h8v8H64V48M80 48h8v8H80V48M160 48h8v8H160V48M176 48h8v8H176V48M192 48h8v8H192V48M200 48h8v8H200V48M208 48h8v8H208V48M224 48h8v8H224V48M32 56h8v8H32V56M48 56h8v8H48V56M56 56h8v8H56V56M64 56h8v8H64V56M80 56h8v8H80V56M96 56h8v8H96V56M104 56h8v8H104V56M112 56h8v8H112V56M144 56h8v8H144V56M152 56h8v8H152V56M176 56h8v8H176V56M192 56h8v8H192V56M200 56h8v8H200V56M208 56h8v8H208V56M224 56h8v8H224V56M32 64h8v8H32V64M48 64h8v8H48V64M56 64h8v8H56V64M64 64h8v8H64V64M80 64h8v8H80V64M144 64h8v8H144V64M176 64h8v8H176V64M192 64h8v8H192V64M200 64h8v8H200V64M208 64h8v8H208V64M224 64h8v8H224V64M32 72h8v8H32V72M80 72h8v8H80V72M104 72h8v8H104V72M120 72h8v8H120V72M136 72h8v8H136V72M160 72h8v8H160V72M176 72h8v8H176V72M224 72h8v8H224V72M32 80h8v8H32V80M40 80h8v8H40V80M48 80h8v8H48V80M56 80h8v8H56V80M64 80h8v8H64V80M72 80h8v8H72V80M80 80h8v8H80V80M96 80h8v8H96V80M112 80h8v8H112V80M128 80h8v8H128V80M144 80h8v8H144V80M160 80h8v8H160V80M176 80h8v8H176V80M184 80h8v8H184V80M192 80h8v8H192V80M200 80h8v8H200V80M208 80h8v8H208V80M216 80h8v8H216V80M224 80h8v8H224V80M96 88h8v8H96V88M104 88h8v8H104V88M112 88h8v8H112V88M120 88h8v8H120V88M128 88h8v8H128V88M152 88h8v8H152V88M160 88h8v8H160V88M32 96h8v8H32V96M48 96h8v8H48V96M56 96h8v8H56V96M72 96h8v8H72V96M80 96h8v8H80V96M88 96h8v8H88V96M104 96h8v8H104V96M128 96h8v8H128V96M136 96h8v8H136V96M160 96h8v8H160V96M176 96h8v8H176V96M200 96h8v8H200V96M216 96h8v8H216V96M224 96h8v8H224V96M48 104h8v8H48V104M72 104h8v8H72V104M88 104h8v8H88V104M120 104h8v8H120V104M136 104h8v8H136V104M144 104h8v8H144V104M160 104h8v8H160V104M208 104h8v8H208V104M224 104h8v8H224V104M56 112h8v8H56V112M64 112h8v8H64V112M80 112h8v8H80V112M96 112h8v8H96V112M128 112h8v8H128V112M136 112h8v8H136V112M168 112h8v8H168V112M184 112h8v8H184V112M208 112h8v8H208V112M32 120h8v8H32V120M64 120h8v8H64V120M72 120h8v8H72V120M104 120h8v8H104V120M128 120h8v8H128V120M152 120h8v8H152V120M160 120h8v8H160V120M192 120h8v8H192V120M200 120h8v8H200V120M208 120h8v8H208V120M216 120h8v8H216V120M56 128h8v8H56V128M72 128h8v8H72V128M80 128h8v8H80V128M88 128h8v8H88V128M120 128h8v8H120V128M128 128h8v8H128V128M144 128h8v8H144V128M168 128h8v8H168V128M176 128h8v8H176V128M184 128h8v8H184V128M216 128h8v8H216V128M224 128h8v8H224V128M40 136h8v8H40V136M56 136h8v8H56V136M64 136h8v8H64V136M88 136h8v8H88V136M104 136h8v8H104V136M112 136h8v8H112V136M120 136h8v8H120V136M128 136h8v8H128V136M144 136h8v8H144V136M168 136h8v8H168V136M184 136h8v8H184V136M192 136h8v8H192V136M200 136h8v8H200V136M208 136h8v8H208V136M40 144h8v8H40V144M64 144h8v8H64V144M80 144h8v8H80V144M96 144h8v8H96V144M112 144h8v8H112V144M120 144h8v8H120V144M136 144h8v8H136V144M200 144h8v8H200V144M216 144h8v8H216V144M32 152h8v8H32V152M48 152h8v8H48V152M88 152h8v8H88V152M112 152h8v8H112V152M120 152h8v8H120V152M144 152h8v8H144V152M152 152h8v8H152V152M184 152h8v8H184V152M192 152h8v8H192V152M216 152h8v8H216V152M80 160h8v8H80V160M104 160h8v8H104V160M128 160h8v8H128V160M144 160h8v8H144V160M160 160h8v8H160V160M168 160h8v8H168V160M176 160h8v8H176V160M184 160h8v8H184V160M192 160h8v8H192V160M200 160h8v8H200V160M216 160h8v8H216V160M96 168h8v8H96V168M144 168h8v8H144V168M152 168h8v8H152V168M160 168h8v8H160V168M192 168h8v8H192V168M208 168h8v8H208V168M216 168h8v8H216V168M32 176h8v8H32V176M40 176h8v8H40V176M48 176h8v8H48V176M56 176h8v8H56V176M64 176h8v8H64V176M72 176h8v8H72V176M80 176h8v8H80V176M96 176h8v8H96V176M104 176h8v8H104V176M136 176h8v8H136V176M144 176h8v8H144V176M152 176h8v8H152V176M160 176h8v8H160V176M176 176h8v8H176V176M192 176h8v8H192V176M200 176h8v8H200V176M208 176h8v8H208V176M216 176h8v8H216V176M224 176h8v8H224V176M32 184h8v8H32V184M80 184h8v8H80V184M96 184h8v8H96V184M104 184h8v8H104V184M112 184h8v8H112V184M120 184h8v8H120V184M136 184h8v8H136V184M144 184h8v8H144V184M160 184h8v8H160V184M192 184h8v8H192V184M200 184h8v8H200V184M32 192h8v8H32V192M48 192h8v8H48V192M56 192h8v8H56V192M64 192h8v8H64V192M80 192h8v8H80V192M112 192h8v8H112V192M136 192h8v8H136V192M144 192h8v8H144V192M160 192h8v8H160V192M168 192h8v8H168V192M176 192h8v8H176V192M184 192h8v8H184V192M192 192h8v8H192V192M208 192h8v8H208V192M224 192h8v8H224V192M32 200h8v8H32V200M48 200h8v8H48V200M56 200h8v8H56V200M64 200h8v8H64V200M80 200h8v8H80V200M96 200h8v8H96V200M104 200h8v8H104V200M152 200h8v8H152V200M160 200h8v8H160V200M176 200h8v8H176V200M208 200h8v8H208V200M224 200h8v8H224V200M32 208h8v8H32V208M48 208h8v8H48V208M56 208h8v8H56V208M64 208h8v8H64V208M80 208h8v8H80V208M96 208h8v8H96V208M104 208h8v8H104V208M144 208h8v8H144V208M152 208h8v8H152V208M160 208h8v8H160V208M176 208h8v8H176V208M184 208h8v8H184V208M192 208h8v8H192V208M200 208h8v8H200V208M208 208h8v8H208V208M216 208h8v8H216V208M32 216h8v8H32V216M80 216h8v8H80V216M104 216h8v8H104V216M120 216h8v8H120V216M128 216h8v8H128V216M136 216h8v8H136V216M144 216h8v8H144V216M160 216h8v8H160V216M176 216h8v8H176V216M192 216h8v8H192V216M200 216h8v8H200V216M208 216h8v8H208V216M32 224h8v8H32V224M40 224h8v8H40V224M48 224h8v8H48V224M56 224h8v8H56V224M64 224h8v8H64V224M72 224h8v8H72V224M80 224h8v8H80V224M96 224h8v8H96V224M104 224h8v8H104V224M112 224h8v8H112V224M120 224h8v8H120V224M152 224h8v8H152V224M160 224h8v8H160V224M184 224h8v8H184V224M192 224h8v8H192V224M200 224h8v8H200V224M216 224h8v8H216V224M224 224h8v8H224V224"/></svg>
